<?xml version="1.0" encoding="UTF-8"?>
<svg width="118px" height="82px" viewBox="0 0 118 82" version="1.1" xmlns="http://www.w3.org/2000/svg" xmlns:xlink="http://www.w3.org/1999/xlink">
    <!-- Generator: Sketch 59.1 (86144) - https://sketch.com -->
    <title>School of Music_3-line stack[2]</title>
    <desc>Created with Sketch.</desc>
    <g id="Style-Guide-and-Sitemap" stroke="none" stroke-width="1" fill="none" fill-rule="evenodd">
        <g id="Style-Guide" transform="translate(-367.000000, -4056.000000)" fill="#151515">
            <g id="School-of-Music_3-line-stack[2]" transform="translate(367.000000, 4056.000000)">
                <g id="Group-19">
                    <path d="M51.2541414,13.7024412 C51.2541414,11.9129118 50.1422727,10.2922059 48.5928687,10.2922059 C46.9088384,10.2922059 45.7308586,11.6415882 45.3269798,13.7711765 L51.2541414,13.7024412 Z M54.5536869,21.1355 C52.6352626,22.8924706 51.052202,24.0416765 48.2899596,24.0416765 C44.7536162,24.0416765 42.0262323,21.2367941 42.0262323,17.3176765 C42.0262323,12.5206765 44.9555556,9.24429412 49.0989192,9.24429412 C52.4333232,9.24429412 54.2856364,11.1351176 54.2856364,14.1425882 L54.2856364,14.7503529 L45.1923535,14.6828235 C45.1250404,15.0542353 45.0913838,15.662 45.0913838,16.4060294 C45.0913838,19.8524412 47.2466061,22.1158824 50.1086162,22.1158824 C51.825101,22.1158824 52.7013737,21.5081176 54.0488384,20.3589118 L54.5536869,21.1355 Z M40.2087778,23.7715588 L32.7334141,23.7715588 L32.7334141,22.9937647 C34.2479596,22.8924706 34.6842929,22.5536176 34.9547475,21.9808235 L34.9547475,4.47985294 C34.9547475,3.33305882 34.7852626,2.85914706 32.4641616,2.65655882 L32.4641616,1.98005882 L38.6269192,0.425676471 L38.8288586,1.00088235 L37.8516162,2.21641176 L37.8516162,21.9808235 C38.1869798,22.6549118 38.8288586,22.8924706 40.2087778,22.9937647 L40.2087778,23.7715588 Z M26.4348283,16.7436765 C25.5585556,17.1488529 23.4045354,18.0954706 22.4621515,18.5681765 C22.3263232,19.1084118 22.2253535,19.5811176 22.2253535,20.3251471 C22.2253535,21.3380882 22.7987172,22.3510294 23.9081818,22.3510294 C24.9202828,22.3510294 25.4936465,22.0145882 26.4023737,21.3055294 L26.4348283,16.7436765 Z M32.428101,22.1484412 C31.6888586,23.0275294 30.3738485,24.0754412 29.1958687,24.0754412 C27.3784141,24.0754412 26.5033434,22.8249412 26.4348283,21.9458529 C25.2917071,23.1637941 23.8072121,24.0754412 22.3948384,24.0754412 C20.5749798,24.0754412 19.0279798,22.9612059 19.0279798,21.0342059 C19.0279798,20.0875882 19.2623737,19.1084118 19.7347677,18.3306176 L26.4348283,15.8995588 L26.4348283,13.3985588 C26.4348283,11.8791471 25.7280404,10.4260588 24.2134949,10.4260588 C23.3035657,10.4260588 22.4272929,11.5402941 22.3611818,13.2647059 L19.3308889,13.7711765 L19.3308889,13.4347353 C20.3405859,10.3935 23.6737879,9.21173529 25.2917071,9.21173529 C28.3556566,9.21173529 29.4651212,10.8312353 29.4326667,13.3322353 L29.331697,20.4264412 C29.2968384,21.812 30.0384848,22.1484412 30.7128182,22.1484412 C31.2501212,22.1484412 31.7898283,21.812 32.428101,21.1692647 L32.428101,22.1484412 Z M22.0582727,3.16302941 C20.2396162,3.23176471 19.0604343,3.83832353 18.1517071,5.39391176 L12.5947677,14.7841176 L12.5947677,21.1029412 C13.2342424,22.6223529 14.8509596,22.8249412 16.4003636,22.8924706 L16.4003636,23.7715588 L5.52448485,23.7715588 L5.52448485,22.8924706 C7.07388889,22.8249412 8.95865657,22.5885882 9.46350505,21.5744412 L9.46350505,15.0542353 L3.80559596,5.45902941 C2.82835354,3.83832353 1.88717172,3.29688235 0,3.16302941 L0,2.28394118 L9.46350505,2.28394118 L9.46350505,3.16302941 C7.67970707,3.26432353 7.10634343,3.60317647 6.60149495,4.00835294 L11.8531212,13.1284412 L17.0061818,4.04091176 C16.4688788,3.63694118 15.7596869,3.26432353 13.9758889,3.16302941 L13.9758889,2.28394118 L22.0582727,2.28394118 L22.0582727,3.16302941 L22.0582727,3.16302941 Z" id="Fill-18"></path>
                </g>
                <path d="M8.16532323,54.2357647 C6.37791919,54.2357647 4.90905051,53.7160294 4.01474747,53.3385882 L3.61086869,49.5497059 L4.24433333,49.5497059 C4.44627273,50.4746176 5.13863636,51.6901471 5.94639394,52.2979118 C6.49331313,52.7030882 7.55950505,53.3108529 8.51270707,53.3108529 C10.3578081,53.3108529 11.3362525,52.1544118 11.3362525,50.8797941 C11.3362525,49.2590882 10.2989091,48.8261765 8.56920202,48.1026471 C5.31052525,46.7158824 4.15778788,45.8777941 4.15778788,43.6782647 C4.15778788,41.2182647 6.60870707,39.5420882 9.86738384,39.5420882 C11.3951515,39.5420882 12.5767374,39.9472647 13.3556465,40.2933529 L13.3556465,43.9676765 L12.7498283,43.9676765 C12.6632828,42.9824706 12.2894545,41.8260294 11.4516465,41.3062941 C11.1355152,41.1037059 10.2424141,40.5260882 9.23271717,40.5260882 C7.41646465,40.5260882 6.49331313,41.6547941 6.49331313,42.7521471 C6.49331313,44.2293529 7.24217172,44.8347059 9.46350505,45.7029412 C12.4913939,46.9184706 13.7006263,47.8723235 13.7006263,50.0139706 C13.7006263,52.644 11.2220606,54.2357647 8.16532323,54.2357647" id="Fill-20"></path>
                <path d="M30.6935859,49.8113824 L29.9146768,53.4266176 C28.2426667,53.9463529 27.6933434,54.2080294 25.0705354,54.2080294 C20.5136768,54.2080294 17.2273535,50.9388824 17.2273535,46.7725588 C17.2273535,42.5218235 20.7156162,39.5698235 25.1270303,39.5698235 C27.3195152,39.5698235 28.5311515,39.975 30.2031616,40.3801765 L30.2031616,44.198 L29.5973434,44.198 C29.510798,43.2164118 29.1069192,42.1166471 28.2991616,41.5957059 C27.8952828,41.3062941 26.8879899,40.4959412 24.9250909,40.4959412 C21.7842121,40.4959412 19.9956061,43.1283824 19.9956061,46.2516176 C19.9956061,50.3600588 22.3034848,53.2517647 25.9648384,53.2517647 C27.1464242,53.2517647 27.9818283,52.7621765 28.3580606,52.4414118 C29.2211111,51.7769706 29.8269293,50.7362941 30.0288687,49.6956176 L30.6935859,49.8113824" id="Fill-21"></path>
                <path d="M50.1062121,53.9186176 L43.3592727,53.9186176 L43.3592727,53.2819118 C44.3689697,53.2517647 45.2608687,52.9623529 45.4928586,52.5282353 L45.4928586,47.3236471 L37.9970606,47.3236471 L37.9970606,52.5282353 C38.1689495,52.9623529 39.1197475,53.2517647 40.100596,53.2819118 L40.100596,53.9186176 L33.4125556,53.9186176 L33.4125556,53.2819118 C34.391,53.2517647 35.344202,52.9623529 35.5160909,52.5282353 L35.5160909,41.2182647 C35.344202,40.7853529 34.391,40.4959412 33.4125556,40.4392647 L33.4125556,39.8604412 L40.100596,39.8604412 L40.100596,40.4392647 C39.1197475,40.4959412 38.1689495,40.7853529 37.9970606,41.2182647 L37.9970606,46.1370588 L45.4928586,46.1370588 L45.4928586,41.2182647 C45.2608687,40.7853529 44.3689697,40.4959412 43.3592727,40.4392647 L43.3592727,39.8604412 L50.1062121,39.8604412 L50.1062121,40.4392647 C49.0977172,40.4959412 48.2022121,40.7853529 47.9726263,41.2182647 L47.9726263,52.5282353 C48.2022121,52.9623529 49.0977172,53.2517647 50.1062121,53.2819118 L50.1062121,53.9186176" id="Fill-22"></path>
                <path d="M59.8305556,40.5260882 C57.7558687,40.5260882 55.7364747,42.8389706 55.7364747,46.2829706 C55.7364747,50.3311176 57.6681212,53.2517647 61.1287374,53.2517647 C63.3200202,53.2517647 65.3670606,51.0257059 65.3670606,47.5262353 C65.3670606,43.2730882 63.2346768,40.5260882 59.8305556,40.5260882 Z M60.0637475,54.2647059 C55.6210808,54.2647059 53.0547677,51.1981471 53.0547677,46.9462059 C53.0547677,42.6363824 56.6031313,39.5420882 61.0421919,39.5420882 C65.5401515,39.5420882 68.0499697,42.6363824 68.0499697,46.7158824 C68.0499697,51.1704118 64.5028081,54.2647059 60.0637475,54.2647059 L60.0637475,54.2647059 Z" id="Fill-23"></path>
                <path d="M78.062798,40.5260882 C75.9881111,40.5260882 73.9687172,42.8389706 73.9687172,46.2829706 C73.9687172,50.3311176 75.9003636,53.2517647 79.3609798,53.2517647 C81.5522626,53.2517647 83.599303,51.0257059 83.599303,47.5262353 C83.599303,43.2730882 81.4669192,40.5260882 78.062798,40.5260882 Z M78.2959899,54.2647059 C73.8533232,54.2647059 71.2870101,51.1981471 71.2870101,46.9462059 C71.2870101,42.6363824 74.8353737,39.5420882 79.2744343,39.5420882 C83.7723939,39.5420882 86.2822121,42.6363824 86.2822121,46.7158824 C86.2822121,51.1704118 82.7350505,54.2647059 78.2959899,54.2647059 L78.2959899,54.2647059 Z" id="Fill-24"></path>
                <path d="M100.938444,53.9186176 L88.8292929,53.9186176 L88.8292929,53.2819118 C89.7211919,53.2240294 91.0782727,52.9925 91.3655556,52.2701765 L91.3655556,41.2182647 C91.1936667,40.7853529 90.2404646,40.5260882 89.2620202,40.4682059 L89.2620202,39.8604412 L96.152,39.8604412 L96.152,40.4682059 C95.1711515,40.5260882 94.0184141,40.8142941 93.8465253,41.2496176 L93.8465253,52.8465882 L97.8240101,52.7308235 C99.3241313,52.6741471 100.30498,51.2572353 100.333828,49.4062059 L100.938444,49.4062059 L100.938444,53.9186176" id="Fill-25"></path>
                <path d="M9.47792929,68.2613824 C7.4020404,68.2613824 5.38264646,70.5742647 5.38264646,74.0182647 C5.38264646,78.0664118 7.31549495,80.9870588 10.7761111,80.9870588 C12.9661919,80.9870588 15.0132323,78.761 15.0132323,75.2615294 C15.0132323,71.0083824 12.8820505,68.2613824 9.47792929,68.2613824 Z M9.70991919,82 C5.26845455,82 2.70214141,78.9334412 2.70214141,74.6815 C2.70214141,70.3716765 6.24930303,67.2773824 10.6883636,67.2773824 C15.1875253,67.2773824 17.6961414,70.3716765 17.6961414,74.4511765 C17.6961414,78.9057059 14.1489798,82 9.70991919,82 L9.70991919,82 Z" id="Fill-26"></path>
                <path d="M31.5181717,71.1542941 L30.9123535,71.1542941 C30.8246061,69.2152353 30.0168485,68.6955 28.3736869,68.6955 L25.2604545,68.6955 L25.2604545,74.1617647 L28.2594949,74.046 C29.7007172,73.9869118 30.3341818,73.9591765 30.5361212,72.3384706 L31.1142929,72.3384706 L31.1142929,77.0824118 L30.5084747,77.0824118 C30.3341818,75.2892647 29.7572121,75.2615294 28.2594949,75.2615294 L25.2604545,75.2313824 L25.2604545,79.9174412 C25.5477374,80.6409706 26.8170707,80.9593235 27.8267677,81.0172059 L27.8267677,81.6539118 L20.4463636,81.6539118 L20.4463636,81.0172059 C21.4248081,80.9593235 22.493404,80.7567353 22.7794848,80.0332059 L22.7794848,69.0415882 C22.5775455,68.5495882 21.5702525,68.2613824 20.5605556,68.2312353 L20.5605556,67.5957353 L29.6718687,67.5957353 C30.1610909,67.5957353 30.6515152,67.5667941 30.9676465,67.4510294 L31.5181717,67.4510294 L31.5181717,71.1542941" id="Fill-27"></path>
                <path d="M60.1286566,81.6539118 L53.2951717,81.6539118 L53.2951717,81.0172059 C54.3048687,80.9593235 55.4287576,80.6687059 55.6030505,80.2357941 L55.1703232,72.1358824 L55.1402727,69.823 L54.4503131,71.5872059 L50.038899,81.6816471 L49.1722424,81.6816471 L45.339,71.1820294 L44.7608283,69.4467647 L44.7043333,71.0083824 L44.0985152,80.0621471 C44.2415556,80.4974706 45.3101515,80.9593235 46.289798,81.0172059 L46.289798,81.6539118 L40.5513535,81.6539118 L40.5513535,81.0172059 C41.5610505,80.9593235 42.5118485,80.4974706 42.7726869,80.0621471 L43.3785051,72.1358824 C43.435,71.3255294 43.5491919,69.7639118 43.5491919,69.6770882 C43.5491919,69.5335882 43.5491919,69.2152353 43.5215455,68.9547647 C43.2907576,68.6074706 42.541899,68.2613824 41.5610505,68.2035 L41.5610505,67.5957353 L46.4917374,67.5957353 L47.2117475,69.7072353 L50.3550303,78.4125 L53.9586869,69.9098235 L54.9094848,67.5957353 L59.320899,67.5957353 L59.320899,68.2035 C58.312404,68.2613824 57.5623434,68.5797353 57.3616061,68.9258235 C57.3616061,69.1284118 57.3616061,69.3032647 57.3616061,69.4467647 C57.3616061,69.6770882 57.475798,71.4135588 57.5070505,72.1358824 L57.9662222,80.2357941 C58.2270606,80.6687059 59.1502121,80.9593235 60.1286566,81.0172059 L60.1286566,81.6539118" id="Fill-28"></path>
                <path d="M78.304404,68.2035 C77.3259596,68.2613824 76.4028081,68.7232353 76.2008687,69.1875 L76.2008687,76.1562941 C76.2008687,80.2357941 73.663404,82 70.2027879,82 C66.6580303,82 64.495596,80.0332059 64.495596,76.5928235 L64.495596,68.9849118 C64.2636061,68.5495882 63.3717071,68.2613824 62.3896566,68.2035 L62.3896566,67.5957353 L69.136596,67.5957353 L69.136596,68.2035 C68.128101,68.2613824 67.177303,68.5495882 66.9753636,68.9849118 L66.9753636,76.1285588 C66.9753636,78.9635882 68.3576869,80.5252059 70.8951515,80.5252059 C73.5768586,80.5252059 74.9026869,78.8767647 74.9026869,75.6944412 L74.9026869,72.8895588 C74.9026869,71.6740294 74.8161414,69.8519412 74.7884949,69.1875 C74.5577071,68.7232353 73.3184242,68.2613824 72.3087273,68.2035 L72.3087273,67.5957353 L78.304404,67.5957353 L78.304404,68.2035" id="Fill-29"></path>
                <path d="M85.8975657,81.9710588 C84.1113636,81.9710588 82.6412929,81.4513235 81.7469899,81.0738824 L81.3431111,77.285 L81.9765758,77.285 C82.1785152,78.2099118 82.8708788,79.4254412 83.6786364,80.0332059 C84.2255556,80.4383824 85.2917475,81.0461471 86.2449495,81.0461471 C88.0900505,81.0461471 89.069697,79.8897059 89.069697,78.6150882 C89.069697,76.9943824 88.0311515,76.5614706 86.3014444,75.8391471 C83.0427677,74.4511765 81.8900303,73.6130882 81.8900303,71.4135588 C81.8900303,68.9547647 84.3409495,67.2773824 87.5996263,67.2773824 C89.1273939,67.2773824 90.3089798,67.6825588 91.0878889,68.0286471 L91.0878889,71.7029706 L90.4820707,71.7029706 C90.3955253,70.7177647 90.021697,69.5613235 89.1838889,69.0415882 C88.8665556,68.839 87.9746566,68.2613824 86.9649596,68.2613824 C85.1487071,68.2613824 84.2255556,69.3900882 84.2255556,70.4874412 C84.2255556,71.9646471 84.9744141,72.57 87.1957475,73.4382353 C90.2236364,74.6537647 91.4328687,75.6076176 91.4328687,77.7492647 C91.4328687,80.3792941 88.954303,81.9710588 85.8975657,81.9710588" id="Fill-30"></path>
                <path d="M101.617586,81.6539118 L94.6398586,81.6539118 L94.6398586,81.0172059 C95.677202,80.9593235 96.7181515,80.6687059 96.8888384,80.2357941 L96.8888384,68.9849118 C96.7181515,68.5495882 95.677202,68.2613824 94.6398586,68.2035 L94.6398586,67.5957353 L101.617586,67.5957353 L101.617586,68.2035 C100.580242,68.2613824 99.541697,68.5495882 99.3686061,68.9849118 L99.3686061,80.2357941 C99.541697,80.6687059 100.580242,80.9593235 101.617586,81.0172059 L101.617586,81.6539118" id="Fill-31"></path>
                <path d="M118.002323,77.5466765 L117.222212,81.1619118 C115.551404,81.6816471 115.002081,81.9433235 112.379273,81.9433235 C107.822414,81.9433235 104.536091,78.6741765 104.536091,74.5078529 C104.536091,70.2571176 108.024354,67.3051176 112.435768,67.3051176 C114.628253,67.3051176 115.839889,67.7102941 117.511899,68.1154706 L117.511899,71.9332941 L116.906081,71.9332941 C116.818333,70.9517059 116.415657,69.8519412 115.607899,69.331 C115.20402,69.0415882 114.196727,68.2312353 112.233828,68.2312353 C109.092949,68.2312353 107.303141,70.8636765 107.303141,73.9869118 C107.303141,78.0953529 109.61102,80.9870588 113.273576,80.9870588 C114.455162,80.9870588 115.290566,80.4974706 115.665596,80.1767059 C116.529848,79.5122647 117.135667,78.4715882 117.337606,77.4309118 L118.002323,77.5466765" id="Fill-32"></path>
            </g>
        </g>
    </g>
</svg>